<svg xmlns="http://www.w3.org/2000/svg" width="23" height="24" viewBox="0 0 23 24">
  <path id="Active" d="M58.928,36.092a1.885,1.885,0,0,0-.767-2.362l-2.147-1.28a.212.212,0,0,1-.1-.135l-.558-2.44a1.879,1.879,0,0,0-2.007-1.46l-2.489.223a.252.252,0,0,1-.159-.05l-1.883-1.651a1.885,1.885,0,0,0-2.477,0L44.465,28.6a.183.183,0,0,1-.157.05l-2.492-.223a1.878,1.878,0,0,0-2,1.46l-.558,2.44a.214.214,0,0,1-.1.135l-2.143,1.27a1.885,1.885,0,0,0-.767,2.362l.989,2.3a.21.21,0,0,1,0,.164l-.989,2.3a1.885,1.885,0,0,0,.767,2.362l2.147,1.28a.212.212,0,0,1,.1.135l.558,2.44a1.875,1.875,0,0,0,2.007,1.46l2.489-.223a.232.232,0,0,1,.159.05l1.883,1.651a1.886,1.886,0,0,0,2.477,0l1.882-1.651a.21.21,0,0,1,.157-.05l2.492.223a1.876,1.876,0,0,0,2.007-1.46l.558-2.44a.214.214,0,0,1,.1-.135l2.149-1.276a1.885,1.885,0,0,0,.767-2.362l-.989-2.3a.206.206,0,0,1,0-.163ZM56.4,39.214l.989,2.3a.211.211,0,0,1-.085.262L55.157,43.05a1.888,1.888,0,0,0-.873,1.2l-.558,2.44a.205.205,0,0,1-.223.162l-2.492-.23a1.861,1.861,0,0,0-1.41.46l-1.883,1.65a.205.205,0,0,1-.274,0l-1.883-1.65a1.9,1.9,0,0,0-1.245-.465H44.15l-2.492.23a.206.206,0,0,1-.223-.162l-.558-2.44a1.886,1.886,0,0,0-.874-1.2l-2.136-1.268a.211.211,0,0,1-.085-.262l.989-2.3a1.9,1.9,0,0,0,0-1.491l-.989-2.3a.211.211,0,0,1,.085-.262l2.151-1.276a1.888,1.888,0,0,0,.873-1.2l.558-2.44a.2.2,0,0,1,.223-.162l2.492.23a1.886,1.886,0,0,0,1.41-.46L47.45,28.21a.205.205,0,0,1,.274,0l1.884,1.65a1.94,1.94,0,0,0,1.409.46l2.492-.23a.2.2,0,0,1,.223.162l.557,2.44a1.886,1.886,0,0,0,.874,1.2l2.15,1.276a.211.211,0,0,1,.085.262l-.989,2.3a1.89,1.89,0,0,0-.007,1.485v0ZM51.4,35.055l-5.034,5.151-2.693-1.932a.837.837,0,0,0-.973,1.362l3.28,2.342a.833.833,0,0,0,1.084-.095L52.59,36.22a.836.836,0,0,0-1.156-1.209l-.039.04Z" transform="translate(-36.094 -26.471)" fill="#4caf50"/>
</svg>
