<svg xmlns="http://www.w3.org/2000/svg" width="24" height="24" viewBox="0 0 24 24">
  <path id="Collision_Part" data-name="Collision Part" d="M30.973,51.327a.551.551,0,0,1,.073.065l-.008-.005c-.022-.02-.044-.039-.065-.06Zm22.227-9.7v9.032a3.6,3.6,0,0,1-.026.505,2.244,2.244,0,0,1-1.613,1.857,3.658,3.658,0,0,1-.989.079H31.423a2.24,2.24,0,0,1-1.964-1.188,2.571,2.571,0,0,1-.256-1.164V43.742a.785.785,0,0,1,.394-.685l.032-.016c.6-.3,1.211-.571,1.816-.857l2.308-1.09.267-.127a.329.329,0,0,1,.053-.026,1.026,1.026,0,0,1,.4-.111.867.867,0,0,1,.4.111c.177.079.352.167.526.249q1.205.571,2.413,1.14l1.131.533c.482-.23.969-.453,1.452-.682l2.308-1.09.267-.127a.325.325,0,0,1,.053-.026,1.027,1.027,0,0,1,.4-.111.866.866,0,0,1,.4.111c.177.079.352.167.526.249q1.205.571,2.413,1.14l1.135.536.155-.073q1.205-.571,2.413-1.14L52,40.936a1.023,1.023,0,0,1,.245-.079.931.931,0,0,1,.165-.024A.8.8,0,0,1,53.2,41.626ZM30.888,51.238a.045.045,0,0,1-.006-.011S30.883,51.232,30.888,51.238Zm20.439.176-.011.006S51.321,51.418,51.326,51.414Zm.275-1.607V42.875q-.327.151-.653.3l-2.308,1.09-.267.127a.327.327,0,0,1-.053.026,1.026,1.026,0,0,1-.4.111.865.865,0,0,1-.4-.111c-.177-.079-.352-.167-.526-.249q-1.205-.571-2.413-1.14L43.441,42.5c-.482.23-.969.454-1.452.682l-2.308,1.09-.267.127a.325.325,0,0,1-.053.026,1.027,1.027,0,0,1-.4.111.866.866,0,0,1-.4-.111c-.177-.079-.352-.167-.526-.249q-1.205-.571-2.413-1.14L34.478,42.5l-.155.073q-1.205.571-2.413,1.14l-1.121.528v6c0,.238-.016.484,0,.722a1.517,1.517,0,0,0,.044.162,1.3,1.3,0,0,0,.09.155h0l.05.05c-.015-.009.011.024.051.051l.014.009.036.033-.028-.028a1.3,1.3,0,0,0,.128.074,1.6,1.6,0,0,0,.16.044l.107,0H50.482c.188,0,.381.011.569,0a1.493,1.493,0,0,0,.16-.043,1.3,1.3,0,0,0,.155-.09h0l.05-.05c-.009.015.024-.011.051-.051l.009-.014.033-.036-.028.028a1.307,1.307,0,0,0,.074-.129,1.613,1.613,0,0,0,.043-.158c0-.031,0-.062,0-.093C51.6,50.518,51.6,50.164,51.6,49.807Zm-.185,1.521c.02-.02.04-.043.059-.065l.005-.008a.547.547,0,0,0-.065.073Zm0-20.442c-.02-.02-.043-.04-.065-.06l-.008-.005a.541.541,0,0,0,.073.065Zm-20.442,0c-.02.02-.04.043-.06.065l-.005.008a.547.547,0,0,0,.065-.073Zm22.218.434v7.139a.785.785,0,0,1-.394.685l-.032.016c-.6.3-1.211.571-1.816.857l-2.308,1.09-.267.127a.327.327,0,0,1-.053.026,1.027,1.027,0,0,1-.4.111.866.866,0,0,1-.4-.111c-.177-.079-.352-.167-.526-.249q-1.205-.571-2.413-1.14l-1.131-.534c-.482.23-.969.454-1.452.682l-2.308,1.09-.267.127a.329.329,0,0,1-.053.026,1.026,1.026,0,0,1-.4.111.866.866,0,0,1-.4-.111c-.177-.079-.352-.167-.526-.249q-1.205-.571-2.413-1.14l-1.135-.536-.155.073q-1.205.571-2.413,1.14l-1.515.714a.822.822,0,0,1-.8,0,.794.794,0,0,1-.394-.685V31.327a2.238,2.238,0,0,1,.7-1.621,2.287,2.287,0,0,1,1.525-.606H50.953a2.255,2.255,0,0,1,2.23,2.129A.726.726,0,0,1,53.189,31.319Zm-1.6-.151v0l.007.049Q51.594,31.191,51.591,31.168Zm0-.019,0,.015v0C51.589,31.161,51.589,31.155,51.587,31.15Zm-.088-.175a.044.044,0,0,1,.006.011S51.5,30.981,51.5,30.975ZM31.061,30.8l.011-.006S31.066,30.795,31.061,30.8Zm20.54.523c0-.02,0-.039,0-.059a1.505,1.505,0,0,0-.046-.173,1.3,1.3,0,0,0-.09-.155h0l-.05-.05c.016.009-.011-.024-.05-.051l-.014-.009-.036-.033.028.028a1.333,1.333,0,0,0-.128-.074,1.623,1.623,0,0,0-.16-.044l-.107,0H31.9c-.188,0-.38-.011-.568,0a1.5,1.5,0,0,0-.16.043,1.3,1.3,0,0,0-.155.09l-.05.05c.009-.016-.024.011-.051.051l-.009.014-.033.036.028-.028a1.336,1.336,0,0,0-.074.128,1.625,1.625,0,0,0-.043.158c0,.031,0,.062,0,.093,0,.357,0,.711,0,1.069V39.33q.328-.152.656-.306l2.308-1.09.267-.127a.329.329,0,0,1,.053-.026,1.026,1.026,0,0,1,.4-.111.867.867,0,0,1,.4.111c.177.079.352.167.526.249q1.205.571,2.413,1.14l1.131.533c.482-.23.969-.454,1.452-.682l2.308-1.09.267-.127a.329.329,0,0,1,.053-.026,1.026,1.026,0,0,1,.4-.111.867.867,0,0,1,.4.111c.177.079.352.167.526.249q1.205.571,2.413,1.14l1.135.536.155-.073q1.205-.571,2.413-1.14l1.121-.528V31.322Z" transform="translate(-29.2 -29.1)" fill="#607d8b"/>
</svg>
