<svg xmlns="http://www.w3.org/2000/svg" width="20" height="20" viewBox="0 0 20 20">
  <path id="Excel" d="M11.024,16.162a.6.6,0,0,0-.514-.141l-10,2a.655.655,0,0,0-.51.655V33.342A.656.656,0,0,0,.51,34l10,2a.565.565,0,0,0,.115.012.6.6,0,0,0,.4-.153.685.685,0,0,0,.226-.513V16.675A.683.683,0,0,0,11.024,16.162ZM10,34.538,1.25,32.789V19.229L10,17.479Zm9.375-15.863h-8.75a.668.668,0,0,0,0,1.333H18.75v12H10.625a.668.668,0,0,0,0,1.333h8.75A.647.647,0,0,0,20,32.676V19.342A.647.647,0,0,0,19.375,18.675Zm-6.25,2.667h-2.5a.668.668,0,0,0,0,1.333h2.5a.668.668,0,0,0,0-1.333Zm0,2.667h-2.5a.668.668,0,0,0,0,1.333h2.5a.668.668,0,0,0,0-1.333Zm0,2.667h-2.5a.668.668,0,0,0,0,1.333h2.5a.668.668,0,0,0,0-1.333Zm0,2.667h-2.5a.668.668,0,0,0,0,1.333h2.5a.668.668,0,0,0,0-1.333Zm3.75-8h-1.25a.668.668,0,0,0,0,1.333h1.25a.668.668,0,0,0,0-1.333Zm0,2.667h-1.25a.668.668,0,0,0,0,1.333h1.25a.668.668,0,0,0,0-1.333Zm0,2.667h-1.25a.668.668,0,0,0,0,1.333h1.25a.668.668,0,0,0,0-1.333Zm0,2.667h-1.25a.668.668,0,0,0,0,1.333h1.25a.668.668,0,0,0,0-1.333ZM8.6,28.237,4.221,22.9a.6.6,0,0,0-.882-.063.7.7,0,0,0-.059.94l4.375,5.334a.6.6,0,0,0,.883.063A.7.7,0,0,0,8.6,28.237ZM8.509,22.15a.6.6,0,0,0-.878.116l-4.375,6a.7.7,0,0,0,.11.936.6.6,0,0,0,.384.14.61.61,0,0,0,.493-.256l4.375-6a.7.7,0,0,0-.109-.936Z" transform="translate(0 -16.009)" fill="#fff"/>
</svg>
