<svg xmlns="http://www.w3.org/2000/svg" width="24" height="24" viewBox="0 0 24 24">
  <path id="Expand" d="M56,32.857v6a.857.857,0,1,1-1.714,0V34.926l-6.251,6.251a.857.857,0,0,1-1.212-1.212h0l6.251-6.251H49.143a.857.857,0,1,1,0-1.714h6A.861.861,0,0,1,56,32.857ZM41.177,46.823a.856.856,0,0,1,0,1.211h0l-6.251,6.251h3.931a.857.857,0,1,1,0,1.714h-6A.86.86,0,0,1,32,55.143v-6a.857.857,0,1,1,1.714,0v3.931l6.251-6.251a.856.856,0,0,1,1.211,0ZM56,49.143v6a.86.86,0,0,1-.857.857h-6a.857.857,0,1,1,0-1.714h3.931l-6.251-6.251a.857.857,0,0,1,1.212-1.212l6.251,6.251V49.143a.857.857,0,1,1,1.714,0ZM41.177,39.965a.857.857,0,0,1-1.212,1.212h0l-6.251-6.251v3.931a.857.857,0,0,1-1.714,0v-6A.86.86,0,0,1,32.857,32h6a.857.857,0,0,1,0,1.714H34.926Z" transform="translate(-32 -32)" fill="#999"/>
</svg>
