<svg xmlns="http://www.w3.org/2000/svg" width="21" height="21" viewBox="0 0 21 21">
  <path id="Print" d="M12.141,15.709H8.859a.615.615,0,0,1,0-1.23h3.281a.615.615,0,0,1,0,1.23Zm0,2.625H8.859a.615.615,0,0,1,0-1.23h3.281a.615.615,0,0,1,0,1.23ZM5.25,9.146H3.281a.615.615,0,0,1,0-1.23H5.25a.615.615,0,0,1,0,1.23Zm14.52,4.143a1.848,1.848,0,0,1-1.846,1.846H17.35V13.084h.369a.615.615,0,0,0,0-1.23H3.281a.615.615,0,0,0,0,1.23H3.65v2.051H3.076A1.848,1.848,0,0,1,1.23,13.289V8.367A1.848,1.848,0,0,1,3.076,6.521H17.924A1.848,1.848,0,0,1,19.77,8.367Zm-1.846-8H17.35V3.076A3.08,3.08,0,0,0,14.273,0H6.727A3.08,3.08,0,0,0,3.65,3.076V5.291H3.076A3.08,3.08,0,0,0,0,8.367v4.922a3.08,3.08,0,0,0,3.076,3.076H3.65v2.789A1.848,1.848,0,0,0,5.5,21H15.5a1.848,1.848,0,0,0,1.846-1.846V16.365h.574A3.08,3.08,0,0,0,21,13.289V8.367A3.08,3.08,0,0,0,17.924,5.291Zm-1.8,13.863a.616.616,0,0,1-.615.615H5.5a.616.616,0,0,1-.615-.615v-6.07H16.119Zm0-13.863H4.881V3.076A1.848,1.848,0,0,1,6.727,1.23h7.547a1.848,1.848,0,0,1,1.846,1.846Z" fill="#fff"/>
</svg>
