<svg xmlns="http://www.w3.org/2000/svg" width="24" height="24" viewBox="0 0 24 24">
  <path id="Returnable" d="M12.444,12.1l-4.8-3.2A.8.8,0,0,0,6.4,9.567v4.8a.8.8,0,0,0,.356.666l4.8,3.2.023.015a.8.8,0,0,0,.546.112h0a.815.815,0,0,0,.106-.024h0a.8.8,0,0,0,.23-.111l4.785-3.192a.8.8,0,0,0,.356-.666v-4.8a.8.8,0,0,0-.356-.666l-4.8-3.2a.8.8,0,0,0-.888,0l-2.4,1.6a.8.8,0,0,0,0,1.332l4.8,3.2a.8.8,0,0,0,.895-1.327l-.007,0-3.8-2.536L12,7.327,16,10v3.946l-3.2,2.135V12.769A.8.8,0,0,0,12.444,12.1ZM11.2,16.077,8,13.942V11.063L11.2,13.2ZM24,11.969a11.979,11.979,0,1,1-23.958,0v0a.8.8,0,1,1,1.6,0A10.395,10.395,0,1,0,2.721,7.344H4.394a.8.8,0,0,1,0,1.6H.8a.8.8,0,0,1-.8-.8V4.321a.8.8,0,1,1,1.6,0V6.047A11.974,11.974,0,0,1,24,11.969Z" transform="translate(0 0.042)" fill="#4caf50"/>
</svg>
