<svg xmlns="http://www.w3.org/2000/svg" width="37" height="24" viewBox="0 0 37 24">
  <path id="Scrap" d="M75.888,136.3l-4.072-.491a.706.706,0,0,0-.362.049l-1.65.678a.733.733,0,0,0-.453.657,4.742,4.742,0,1,1-4.74-4.937,4.681,4.681,0,0,1,3.232,1.285.719.719,0,0,0,.721.163l.576-.187c.159-.051,4.428-2.964,4.567-3.058a.737.737,0,0,0,.2-1.019.722.722,0,0,0-.088-.107l-2.45-2.478a.727.727,0,0,0-.965-.06l-1.678,1.318q-.373-.176-.761-.317l-.258-2.124a.729.729,0,0,0-.722-.644H62.238a.73.73,0,0,0-.724.648l-.248,2.121c-.253.092-.51.2-.766.318L58.83,126.8a.726.726,0,0,0-.964.059l-3.359,3.382a.737.737,0,0,0-.057.972l1.316,1.682c-.119.257-.225.509-.318.762l-2.106.259a.731.731,0,0,0-.641.728v4.778a.731.731,0,0,0,.641.728l2.105.259q.143.387.318.764l-1.317,1.69a.737.737,0,0,0,.059.971l3.359,3.372a.725.725,0,0,0,.963.059l1.671-1.319q.38.178.766.323l.248,2.118a.73.73,0,0,0,.724.647h4.745a.73.73,0,0,0,.722-.644l.258-2.121c.256-.1.51-.2.76-.321l1.678,1.318a.724.724,0,0,0,.963-.059l3.349-3.372a.737.737,0,0,0,.059-.97l-1.309-1.69c.116-.251.224-.507.319-.765l2.105-.259a.731.731,0,0,0,.641-.728v-2.39a.731.731,0,0,0-.641-.728Zm-.815,2.468-1.917.236a.729.729,0,0,0-.606.507,8.353,8.353,0,0,1-.584,1.4.737.737,0,0,0,.07.795l1.2,1.544-2.439,2.456-1.534-1.2a.724.724,0,0,0-.789-.07,8.244,8.244,0,0,1-1.391.588.73.73,0,0,0-.5.61l-.235,1.932H62.885l-.226-1.929a.732.732,0,0,0-.505-.614,8.682,8.682,0,0,1-1.405-.59.725.725,0,0,0-.786.073l-1.523,1.2-2.445-2.454,1.2-1.543a.737.737,0,0,0,.07-.8,8.345,8.345,0,0,1-.582-1.4.729.729,0,0,0-.606-.507l-1.919-.236v-3.48l1.919-.236a.729.729,0,0,0,.606-.508,8.682,8.682,0,0,1,.585-1.405.737.737,0,0,0-.074-.792l-1.2-1.534,2.446-2.461,1.523,1.2a.723.723,0,0,0,.786.073,7.857,7.857,0,0,1,1.393-.577.734.734,0,0,0,.517-.617l.226-1.939h3.453l.236,1.942a.732.732,0,0,0,.515.614,7.421,7.421,0,0,1,1.378.574.723.723,0,0,0,.789-.07l1.533-1.2,1.372,1.388L68.6,132.159l-.085.028a6.126,6.126,0,0,0-3.9-1.393,6.243,6.243,0,1,0,6.163,6.931l1.056-.433,3.242.391v1.09Zm7.993-3.543a2.806,2.806,0,1,0-2.788-2.806A2.8,2.8,0,0,0,83.065,135.23Zm0-4.147a1.34,1.34,0,1,1-1.332,1.341A1.337,1.337,0,0,1,83.065,131.084Zm-2.643,6.682h5.285a.727.727,0,0,0,.63-.367l2.643-4.608a.737.737,0,0,0,0-.733l-2.643-4.609a.727.727,0,0,0-.63-.367H80.423a.727.727,0,0,0-.63.367l-2.643,4.609a.737.737,0,0,0,0,.733l2.643,4.608A.727.727,0,0,0,80.423,137.766Zm.42-9.217h4.445l2.222,3.876L85.288,136.3H80.843l-2.223-3.875Zm8.131,12.018H85.579a.73.73,0,0,0-.728.733v.847h-6.9a.73.73,0,0,0-.728.733v3.639a.73.73,0,0,0,.728.733h6.9v.958a.731.731,0,0,0,.728.733h3.395a.731.731,0,0,0,.728-.733V141.3a.73.73,0,0,0-.728-.733Zm-9.548,5.219h-.748v-2.173H79.9Zm2.675,0H80.916l.473-2.173h1.186Zm2.75,0H83.592l.474-2.173h.786Zm3.395,1.691H86.307v-5.445h1.939Z" transform="translate(-52.702 -125.033)" fill="#607d8b"/>
</svg>
