<svg xmlns="http://www.w3.org/2000/svg" width="30" height="30" viewBox="0 0 30 30">
  <path id="Tip" d="M13.108,7.31A7.821,7.821,0,0,0,7.337,13a7.938,7.938,0,0,0,2.125,7.652,4.265,4.265,0,0,1,1.144,3.011v.189a2.63,2.63,0,0,0,.879,1.963v1.552A2.64,2.64,0,0,0,14.121,30h1.758a2.64,2.64,0,0,0,2.637-2.637V25.811a2.63,2.63,0,0,0,.879-1.963v-.192a4.409,4.409,0,0,1,1.2-3.068A7.916,7.916,0,0,0,13.108,7.31Zm3.649,20.053a.88.88,0,0,1-.879.879H14.121a.88.88,0,0,1-.879-.879v-.879h3.516Zm2.6-8.018a6.117,6.117,0,0,0-1.718,4.31v.192a.88.88,0,0,1-.879.879H13.242a.88.88,0,0,1-.879-.879v-.189a5.968,5.968,0,0,0-1.671-4.266,6.2,6.2,0,0,1-1.649-5.975,6.048,6.048,0,0,1,4.464-4.4,6.158,6.158,0,0,1,5.847,10.324ZM8.164,6.921,5.678,4.435A.879.879,0,0,0,4.435,5.678L6.921,8.164A.879.879,0,0,0,8.164,6.921Zm-3.711,7.2H.879a.879.879,0,0,0,0,1.758H4.453a.879.879,0,0,0,0-1.758Zm24.668,0H25.547a.879.879,0,0,0,0,1.758h3.574a.879.879,0,0,0,0-1.758ZM25.565,4.435a.879.879,0,0,0-1.243,0L21.836,6.921a.879.879,0,1,0,1.243,1.243l2.486-2.486A.879.879,0,0,0,25.565,4.435ZM15,0a.879.879,0,0,0-.879.879V4.453a.879.879,0,0,0,1.758,0V.879A.879.879,0,0,0,15,0Zm0,10.605a4.8,4.8,0,0,0-1.093.129,4.336,4.336,0,0,0-3.157,3.1.879.879,0,1,0,1.706.423,2.574,2.574,0,0,1,1.851-1.816A3.045,3.045,0,0,1,15,12.363a.879.879,0,0,0,0-1.758Z" fill="#2196f3"/>
</svg>
